<?xml version="1.0" encoding="UTF-8"?>
<svg width="752pt" height="752pt" version="1.1" viewBox="0 0 752 752" xmlns="http://www.w3.org/2000/svg">
 <path d="m222.56 370.79c2.8398-4.2617 4.2617-9.4727 4.7344-14.68 0.47266-8.0508-2.3672-15.629-7.5781-21.312-4.2617-4.7344-10.418-7.5781-17.051-8.0508-6.6289-0.47266-12.785 1.8945-17.523 6.6289-4.2617 3.7891-6.6289 8.9961-6.6289 14.207 0 5.6836 1.8945 10.891 5.6836 14.68 1.8945 1.8945 5.2109 2.3672 7.1055 0.47266 1.8945-1.8945 2.3672-5.2109 0.47266-7.1055-1.8945-1.8945-2.8398-4.7344-2.8398-7.5781 0-2.8398 1.4219-5.6836 3.3164-7.5781 2.8398-2.8398 6.6289-4.2617 10.418-3.7891 3.7891 0 7.5781 1.8945 10.418 4.7344 3.3164 3.7891 5.2109 8.9961 5.2109 14.207 0 5.2109-2.3672 9.9453-6.1562 13.734-11.367 9.4805-30.312 8.0586-40.73-2.832-3.3164-3.7891-5.6836-7.5781-7.5781-12.312 1.8945 0.94531 3.7891 0.94531 5.2109 0.94531 0.94531 0 1.8945 0 2.3672-0.47266 2.8398-0.47266 4.2617-3.3164 3.7891-6.1562s-3.3164-4.2617-6.1562-3.7891c0 0-4.2617 0-8.5234-6.6289 0-3.3164 0-7.1055 0.94531-10.418 2.8398 4.7344 6.6289 8.5234 9.9453 10.891 0.94531 0.47266 1.8945 0.94531 2.8398 0.94531 1.4219 0 3.3164-0.94531 4.2617-2.3672 1.4219-2.3672 0.94531-5.2109-1.4219-6.6289-1.4219-0.94531-12.785-8.9961-7.1055-20.836 2.3672-3.3164 5.6836-5.6836 8.5234-8.0508-1.4219 8.9961 2.3672 19.418 7.1055 23.207 0.94531 0.47266 1.8945 0.94531 2.8398 0.94531 1.4219 0 2.8398-0.47266 3.7891-1.8945 1.8945-1.8945 1.4219-5.2109-0.47266-7.1055-1.4219-1.4219-4.7344-9.4727-2.8398-15.629 0.94531-3.7891 3.7891-6.1562 8.5234-7.1055h0.94531c11.84-1.4219 23.207 1.8945 32.203 9.9453 0.94531 0.94531 2.3672 1.8945 3.7891 1.8945 0.47266 0 1.4219 0 1.8945-0.47266 14.207-6.6289 31.258-6.6289 45.465 0 1.8945 0.94531 4.2617 0.47266 5.6836-0.94531 4.7344-4.2617 9.9453-7.1055 15.629-8.9961 17.523 3.7891 15.629 18.941 15.156 20.836-0.47266 2.8398 1.4219 5.2109 3.7891 5.6836h0.94531c2.3672 0 4.2617-1.8945 4.7344-4.2617 0-0.47266 1.8945-11.367-4.2617-20.836-0.47266-0.94531-1.4219-1.8945-2.3672-2.8398 5.6836 0.94531 10.891 2.8398 15.629 5.6836 7.5781 15.156-0.47266 22.258-1.8945 23.207-2.3672 1.4219-2.8398 4.7344-0.94531 7.1055 0.94531 1.4219 2.3672 1.8945 3.7891 1.8945 0.94531 0 1.8945-0.47266 2.8398-0.94531 3.7891-2.8398 8.5234-9.4727 8.9961-18.469 0 0.47266 0.47266 0.47266 0.47266 0.94531 1.8945 2.8398 3.3164 6.1562 4.7344 9.4727-2.8398 11.84-9.4727 14.68-9.4727 15.156-2.3672 0.94531-3.7891 3.7891-3.3164 6.1562 0.47266 1.8945 2.8398 3.3164 4.7344 3.3164h1.4219c0.47266 0 4.2617-1.4219 8.5234-6.1562-0.94531 9.4727-4.2617 18.469-10.891 25.102-9.9453 10.891-29.363 12.785-39.309 3.3164-3.7891-3.3164-6.1562-8.5234-6.1562-13.734 0-5.2109 1.4219-10.418 5.2109-14.207 2.8398-2.8398 6.1562-4.7344 10.418-4.7344 3.7891 0 7.5781 1.4219 10.418 3.7891 1.8945 1.8945 3.3164 4.7344 3.3164 7.5781 0 2.8398-0.94531 5.6836-2.8398 7.5781-1.8945 1.8945-1.8945 5.2109 0.47266 7.1055 1.8945 1.8945 5.2109 1.8945 7.1055-0.47266 3.7891-4.2617 5.6836-9.4727 5.6836-14.68 0-5.6836-2.3672-10.418-6.6289-14.207-4.7344-4.2617-10.891-6.6289-17.523-6.6289-6.6289 0.47266-12.785 3.3164-17.051 8.0508-5.2109 5.6836-8.0508 13.262-7.5781 21.312 0 4.2617 1.4219 8.0508 3.3164 11.84-0.94531 16.102-19.418 44.988-35.992 44.988-16.57-0.027344-35.039-28.914-35.984-42.648zm209.8 97.559-5.6836-2.8398-1.4219 6.6289c-0.94531 3.7891-6.1562 18.469-3.7891 19.891 1.8945 0.94531 7.5781-2.3672 7.5781-2.3672s0.94531 8.0508 3.7891 9.4727c1.8945 0.94531 8.9961-8.5234 12.785-19.891 0.94531-2.3672 0.94531-5.2109 0.94531-5.2109l-4.7344-1.4219c-3.3125-1.4219-6.1562-2.8438-9.4688-4.2617zm-95.191 17.52-6.1562-1.8945-0.47266 6.1562c0 3.3164-3.3164 20.836-0.47266 23.207 1.4219 1.4219 6.6289-4.2617 6.6289-4.2617 0.47266-0.47266 0.94531 0 1.8945 2.3672 0.94531 1.8945 2.3672 7.1055 4.2617 7.1055 3.7891 0 8.5234-17.996 8.9961-25.102l0.47266-4.7344-4.7344-0.47266c-3.7891-0.47656-7.1016-1.4219-10.418-2.3711zm148.7 4.2617c-3.3164-0.47266-6.6289-0.94531-9.4727-1.8945l-5.2109-1.8945-0.94531 5.6836c-0.94531 3.7891-5.2109 18.469-4.7344 19.418 0.94531 1.8945 8.5234-2.3672 8.5234-2.3672s2.8398 10.418 4.7344 10.891c1.8945 0.94531 8.5234-10.891 11.367-21.785l1.8945-7.1055zm-202.69-7.5742v-4.2617l-4.2617-0.47266c-4.2617-0.47266-8.0508-0.94531-11.84-2.3672l-7.1055-2.3672s0.47266 5.6836 0.94531 7.5781c1.8945 16.102 7.1055 30.781 9.9453 31.258 2.3672 0 4.7344-6.1562 4.7344-6.1562 0.94531-1.8945 1.4219-1.8945 1.8945-1.4219 0 0 6.6289 5.6836 7.5781 4.2617 0.47656-1.8984-1.8906-22.738-1.8906-26.051zm302.62-115.55c3.3164 12.785 0 25.574-8.9961 32.676-0.47266 0.47266-1.4219 0.94531-2.3672 1.4219-7.5781 4.2617-15.629 3.3164-20.363-2.3672-3.7891-4.2617-3.3164-10.418 0.94531-14.207 2.8398-2.8398 7.1055-2.3672 9.9453 0.47266 1.8945 1.8945 4.7344 2.3672 7.1055 0.47266 1.8945-1.8945 2.3672-4.7344 0.47266-7.1055-6.1562-7.1055-17.051-7.5781-24.152-1.4219-8.0508 7.1055-8.9961 19.891-1.4219 27.941 4.7344 5.6836 11.367 8.5234 18.469 8.5234 2.8398 0 5.6836-0.47266 8.5234-1.4219-4.2617 19.891-21.312 35.047-42.148 36.938-0.47266 0-1.4219 0.47266-1.8945 0.47266-0.94531 0.47266-1.8945 1.4219-2.3672 2.8398-5.6836 17.523-18.941 27.469-35.992 27.469-13.262 0-23.68-5.2109-28.887-14.207-2.8398-4.7344-8.5234-17.051-0.47266-31.73 1.4219-2.3672 0.47266-5.2109-1.8945-6.6289-2.3672-1.4219-5.2109-0.47266-6.6289 1.8945-7.5781 13.734-6.1562 26.047-3.3164 34.098-8.5234-0.47266-16.574-3.7891-23.207-9.4727-0.47266-0.47266-1.4219-1.4219-2.8398-1.4219-0.94531 0-1.8945 0.47266-2.8398 0.47266-5.6836 2.8398-12.312 4.2617-19.418 4.2617-1.4219 0-2.8398-0.47266-4.2617-0.47266h-0.94531c-3.3164-0.94531-5.2109 2.3672-5.2109 2.3672-9.9453 12.785-24.625 20.363-39.309 19.418-28.414-1.4219-42.148-21.312-45.465-26.992-1.4219-2.3672-4.2617-3.3164-6.6289-1.8945-2.3672 1.4219-3.3164 4.2617-1.8945 6.6289 0.94531 1.8945 2.8398 4.2617 5.2109 7.5781-5.6836 2.8398-11.367 3.7891-20.363 3.7891-7.5781 0-14.207-1.4219-20.836-4.7344l-0.47266-0.47266c-16.574-8.0508-28.414-25.102-28.414-44.988 0-1.4219 0-4.2617 0.47266-7.1055 6.625 8.5312 15.148 13.266 23.672 13.266 18.941 0 38.359-25.102 44.043-44.988 6.1562 4.7344 13.734 7.1055 21.785 7.1055 10.891 0 21.785-4.2617 29.836-12.785 16.102-17.523 17.996-45.465 5.2109-64.879-3.7891-6.1562-8.9961-11.367-15.156-15.156-6.6289-4.2617-14.207-7.5781-22.73-8.5234-6.6289-0.94531-12.785-0.47266-18.941 1.4219h-0.47266c-6.6289 1.8945-12.785 4.7344-18.469 9.4727-6.1562-2.3672-12.785-3.7891-19.891-4.2617 6.1562-12.785 19.418-21.312 34.57-21.312 2.8398 0 3.7891-1.4219 4.7344-2.8398 7.1055-16.574 25.574-28.414 45.465-28.414 9.9453 0 19.418 2.8398 27.469 8.9961 1.8945 1.4219 4.7344 0.94531 6.1562-0.47266 10.418-9.9453 24.152-15.629 38.832-15.629 21.312 0 40.254 11.84 49.727 30.781 0.94531 1.4219 2.3672 2.8398 4.2617 2.8398 4.7344 0.47266 9.9453 1.4219 14.207 3.7891 4.2617 2.3672 8.0508 5.6836 11.367 9.4727 1.4219 1.8945 3.7891 2.8398 5.6836 1.8945 5.2109-1.8945 10.418-2.8398 16.102-2.8398 27.469 0 49.727 22.258 49.727 49.727 0 3.3164-0.47266 6.6289-0.94531 9.4727-0.47266 1.4219 0.47266 3.3164 1.4219 4.2617 6.6211 7.0938 11.359 16.094 14.199 26.512zm-65.828-47.359c-8.9961-11.367-22.258-17.051-35.992-16.574-8.0508-14.207-22.73-23.207-39.309-23.207-11.367 0-22.73 4.2617-30.781 12.312-1.8945 1.8945-1.8945 5.2109 0 7.1055s5.2109 1.8945 7.1055 0c6.6289-6.1562 15.156-9.4727 24.152-9.4727 11.367 0 22.258 5.6836 28.414 14.68-5.2109 1.4219-10.418 4.2617-15.156 7.5781-2.3672 1.8945-2.3672 4.7344-0.94531 7.1055 1.8945 2.3672 4.7344 2.3672 7.1055 0.94531 14.68-11.367 35.992-8.9961 47.359 5.2109 8.9961 11.367 7.1055 27.469-4.2617 36.465-8.5234 6.6289-20.836 5.2109-27.941-3.3164-5.2109-6.6289-4.2617-15.629 2.3672-20.836 4.7344-3.7891 11.367-2.8398 15.156 1.8945 1.8945 2.3672 4.7344 2.3672 7.1055 0.94531 2.3672-1.8945 2.3672-4.7344 0.94531-7.1055-7.1055-8.9961-20.363-10.418-29.363-3.3164-10.891 8.5234-12.312 24.152-3.7891 34.57 5.6836 7.5781 14.68 11.367 23.207 11.367 6.6289 0 12.785-1.8945 18.469-6.6289 15.625-11.363 18.465-34.094 6.1523-49.723z"/>
</svg>
