<?xml version="1.0" encoding="UTF-8"?>
<svg width="752pt" height="752pt" version="1.1" viewBox="0 0 752 752" xmlns="http://www.w3.org/2000/svg">
 <g>
  <path d="m285.02 416.08h-0.28125v0.054688c0.11328 0 0.16797 0 0.28125 0.054687z"/>
  <path d="m253.12 403.37c1.6875 0.67578 3.3203 1.5742 4.7812 2.6992 0.61719-4.5547 2.7578-8.6055 5.9609-11.586-14.285-9.4492-23.793-25.652-23.793-44.047 0-19.855 27.059-60.527 52.707-92.363 25.652 31.84 52.707 72.453 52.707 92.363 0 23.008-14.793 42.637-35.438 49.781 0.89844 1.8008 1.4609 3.7695 1.7422 5.8516 3.375-2.5859 7.5391-3.9922 11.867-3.9922 2.8672 0 5.625 0.61719 8.1562 1.7422 16.426-12.039 27.113-31.5 27.113-53.383 0-13.219-7.6484-31.613-23.402-56.25-12.148-19.012-25.934-36.73-33.133-45.562-2.3633-2.9258-5.9062-4.6133-9.6758-4.6133-3.7695 0-7.3125 1.6875-9.6758 4.6133-7.1445 8.832-20.98 26.496-33.133 45.562-15.688 24.637-23.336 43.031-23.336 56.25 0 21.602 10.461 40.895 26.551 52.934z"/>
  <path d="m318.09 383.34c-1.7422-3.3203-5.8516-4.5547-9.1133-2.8125-3.3203 1.7422-6.918 2.9805-10.633 3.543-2.7578 0.44922-4.8359 2.4766-5.457 5.0078 5.6797 0.11328 10.801 2.6992 14.344 6.75 2.8125-0.89844 5.5117-2.0234 8.1016-3.375 3.2656-1.7461 4.5039-5.8516 2.7578-9.1133z"/>
  <path d="m325.74 381.71c2.0234 0 4.0508-0.89844 5.3438-2.6445 6.4688-8.4375 9.8438-18.562 9.8438-29.195 0-3.7109-3.0391-6.75-6.75-6.75-3.7109 0-6.75 3.0391-6.75 6.75 0 7.6484-2.4766 14.961-7.0859 21.039-2.25 2.9805-1.6875 7.1992 1.293 9.4492 1.2344 0.90234 2.6406 1.3516 4.1055 1.3516z"/>
  <path d="m373.27 291.71c0.89844 0 1.8008-0.16797 2.6445-0.5625 3.4297-1.4609 5.0078-5.457 3.543-8.832-4.2188-9.8984-12.207-21.375-18.168-29.25-2.25-2.9805-6.4688-3.543-9.4492-1.293s-3.543 6.4688-1.293 9.4492c5.5117 7.2578 12.824 17.719 16.539 26.383 1.0664 2.5898 3.5391 4.1055 6.1836 4.1055z"/>
  <path d="m375.64 393.97c0.054687 18.168 7.8203 34.707 20.25 46.406h24.246c-18.113-7.6484-30.996-25.652-30.996-46.406-0.054688-16.82 8.2695-32.457 22.164-41.906 3.7109-2.5312 5.9062-6.6953 5.9062-11.195v-31.5h32.965c3.7109 0 6.75-3.0391 6.75-6.75 0-3.7109-3.0391-6.75-6.75-6.75h-32.965v-9.4492h21.039c3.7109 0 6.75-3.0391 6.75-6.75s-3.0391-6.75-6.75-6.75h-21.039v-9.4492h32.965c3.7109 0 6.75-3.0391 6.75-6.75 0-3.7109-3.0391-6.75-6.75-6.75h-32.965v-6.9766c0-12.32 10.07-22.387 22.387-22.387 12.32 0 22.387 10.07 22.387 22.387v98.047c0 4.3867 2.1367 8.4375 5.7383 10.855 14.008 9.3945 22.332 25.09 22.332 41.906 0 2.082-0.11328 4.1055-0.33594 6.1328 4.668 1.0117 9 2.9805 12.77 5.7383 0.73047-3.8828 1.0703-7.8203 1.0703-11.812 0-21.262-10.52-41.008-28.07-52.988l-0.003906-97.824c0-19.801-16.09-35.887-35.887-35.887-19.801 0-35.887 16.09-35.887 35.887v97.82c-17.664 11.984-28.129 31.84-28.07 53.102z"/>
  <path d="m439.76 315.45c-6.1875 0-11.25 5.0078-11.25 11.25v32.344c-14.68 4.7266-25.312 18.508-25.312 34.762 0 20.195 16.371 36.562 36.562 36.562 3.0391 0 6.0195-0.39453 8.832-1.0703 1.6875-14.738 12.824-26.605 27.227-29.477 0.33594-1.9688 0.50781-3.9375 0.50781-6.0195 0-16.258-10.633-30.039-25.312-34.762v-32.344c-0.003906-6.2383-5.0078-11.246-11.254-11.246zm24.809 72.621c0.50781 1.8008-0.50781 3.6562-2.3047 4.1641-0.33594 0.11328-0.61719 0.11328-0.95703 0.11328-1.4609 0-2.8125-0.95703-3.2617-2.418-1.7422-5.9609-6.2422-10.742-12.039-12.883-0.16797-0.054688-0.33594-0.11328-0.50781-0.16797-1.7422-0.61719-2.6992-2.5312-2.1367-4.2734 0.61719-1.7422 2.5312-2.6992 4.2734-2.1367 0.89844 0.33594 1.8008 0.67578 2.6445 1.0703 6.918 3.1992 12.152 9.2188 14.289 16.531z"/>
  <path d="m438.02 491.74h-76.109c-3.0391 3.375-7.2578 5.7383-11.98 6.3555 1.6328 2.1367 2.8125 4.5547 3.4297 7.1445h84.66c7.6484 0 13.836 6.1875 13.836 13.836 0 7.6484-6.1875 13.836-13.836 13.836-2.4766 0-4.8945-0.67578-6.9766-1.9141-3.207-1.8555-7.3672-0.78906-9.2266 2.418-1.8555 3.207-0.78906 7.3672 2.418 9.2266 4.1641 2.418 8.9453 3.7109 13.781 3.7109 15.074 0 27.34-12.262 27.34-27.34 0-15.012-12.262-27.273-27.336-27.273z"/>
  <path d="m537.13 488.2c-4.5547-7.1445-11.477-12.77-19.352-15.809-4.7812-1.8555-9.7305-2.5312-17.605-2.5312h-133.26v8.832c0 1.6328-0.22656 3.207-0.5625 4.668h133.82c7.0312 0 10.07 0.61719 12.77 1.6328 10.855 4.1641 17.832 15.188 16.934 26.832-0.39453 5.2891-2.8672 10.07-6.918 13.555-4.0508 3.4297-9.168 5.1172-14.457 4.668-7.9883-0.61719-13.949-7.6484-13.332-15.637 0.44922-5.625 5.3984-9.8984 11.082-9.4492 3.7695 0.28125 6.582 3.6016 6.3008 7.4258-0.054688 0.39453-0.5625 1.2383-1.4062 1.2383h-0.054688c-3.7109-0.11328-6.8047 2.8125-6.918 6.5234-0.11328 3.7109 2.8125 6.8047 6.5234 6.918 7.8203 0.22656 14.68-5.9062 15.301-13.668 0.89844-11.195-7.4805-21.039-18.676-21.938-13.105-1.0117-24.527 8.7734-25.594 21.824-1.2383 15.414 10.293 28.914 25.707 30.152 0.89844 0.054687 1.8008 0.11328 2.6992 0.11328 7.9297 0 15.527-2.8125 21.602-7.9883 6.75-5.793 10.914-13.836 11.586-22.727 0.67188-8.7188-1.4648-17.27-6.1914-24.637z"/>
  <path d="m366.69 460.63h115.82c15.074 0 27.34-12.262 27.34-27.34 0-15.074-12.262-27.34-27.34-27.34-15.074 0-27.34 12.262-27.34 27.34 0 3.7109 3.0391 6.75 6.75 6.75s6.75-3.0391 6.75-6.75c0-7.6484 6.1875-13.836 13.836-13.836 7.6484 0 13.836 6.1875 13.836 13.836 0 7.6484-6.1875 13.836-13.836 13.836l-124.65 0.003906c4.668 2.9805 7.9336 7.8164 8.832 13.5z"/>
  <path d="m347.29 491.52c7.0859 0 12.824-5.7383 12.824-12.824v-15.074c0-7.0859-5.7383-12.824-12.824-12.824l-9.8984-0.003907c-0.28125-0.78906-0.61719-1.5742-0.95703-2.3633l7.0312-7.0312c2.418-2.418 3.7695-5.6797 3.7695-9.1133 0-3.4297-1.3516-6.6367-3.7695-9.1133l-10.688-10.574c-2.418-2.418-5.6797-3.7695-9.1133-3.7695-3.4297 0-6.6367 1.3516-9.1133 3.7695l-6.9766 6.9727c-0.78906-0.33594-1.5742-0.67578-2.3633-0.95703v-9.8984c0-7.0859-5.7383-12.824-12.824-12.824h-15.074c-7.0859 0-12.824 5.7383-12.824 12.824v9.8984c-0.78906 0.28125-1.5742 0.61719-2.3633 0.95703l-7.0312-6.9727c-5.0078-5.0078-13.164-5.0078-18.168 0l-10.633 10.633c-5.0078 5.0078-5.0078 13.164 0 18.168l7.0312 7.0312c-0.33594 0.78906-0.67578 1.5742-0.95703 2.3633h-9.957c-7.0859 0-12.824 5.7383-12.824 12.824v15.074c0 7.0859 5.7383 12.824 12.824 12.824h9.8984c0.28125 0.78906 0.61719 1.5742 0.95703 2.3633l-11.305 11.305c-2.6445 2.6445-2.6445 6.918 0 9.5625l14.961 14.961c2.418 2.418 5.6797 3.7695 9.1133 3.7695 3.4297 0 6.6367-1.3516 9.1133-3.7695l7.0312-7.0312c0.78906 0.33594 1.5742 0.67578 2.3633 0.95703v9.8984c0 7.0859 5.7383 12.824 12.824 12.824l15.02 0.007813c7.0859 0 12.824-5.7383 12.824-12.824v-9.8984c0.78906-0.28125 1.5742-0.61719 2.3633-0.95703l7.0312 7.0312c2.418 2.418 5.6797 3.7695 9.1133 3.7695 3.4297 0 6.6367-1.3516 9.1133-3.7695l10.633-10.633c2.418-2.418 3.7695-5.6797 3.7695-9.1133 0-3.4297-1.3516-6.6367-3.7695-9.1133l-7.0312-7.0312c0.33594-0.78906 0.67578-1.5742 0.95703-2.3633h9.8984zm-23.852 8.4922 10.012 10.012-9.7305 9.7305-10.012-10.012c-2.1367-2.1367-5.3984-2.5859-8.043-1.125-2.8672 1.5742-5.9062 2.8672-9 3.7109-2.9258 0.84375-4.8945 3.4883-4.8945 6.4688v14.117h-13.781v-14.117c0-3.0391-2.0234-5.6797-4.8945-6.4688-3.1484-0.89844-6.1328-2.1367-9-3.7109-2.6445-1.4609-5.9062-1.0117-8.043 1.125l-10.012 10.012-9.7305-9.7305 9.9531-10.012c2.1367-2.1367 2.5859-5.3984 1.125-8.043-1.5742-2.8672-2.8672-5.9062-3.7109-9-0.84375-2.9258-3.4883-4.8945-6.4688-4.8945h-14.121v-13.781h14.117c3.0391 0 5.6797-2.0234 6.4688-4.8945 0.89844-3.0938 2.1367-6.1328 3.7109-9 1.4609-2.6445 1.0117-5.9062-1.125-8.043l-9.9531-10.07 9.7305-9.7305 10.012 10.012c2.1367 2.1367 5.3984 2.5859 8.043 1.125 2.8672-1.5742 5.9062-2.8672 9-3.7109 2.9258-0.84375 4.8945-3.4883 4.8945-6.4688v-14.117h13.781v14.117c0 3.0391 2.0234 5.6797 4.8945 6.4688 3.1484 0.89844 6.1328 2.1367 9 3.7109 2.6445 1.4609 5.9062 1.0117 8.043-1.125l10.012-10.012 9.7344 9.7305-10.012 10.012c-2.1367 2.1367-2.5859 5.3984-1.125 8.043 1.5742 2.8672 2.8672 5.9062 3.7109 9 0.84375 2.8672 3.4883 4.8945 6.4688 4.8945h14.117v13.781h-14.117c-3.0391 0-5.6797 2.0234-6.4688 4.8945-0.89844 3.1484-2.1367 6.1328-3.7109 9-1.4609 2.6445-1.0117 5.9648 1.125 8.1016z"/>
  <path d="m284.85 435.71c-19.688 0-35.719 15.918-35.719 35.438 0 19.52 16.031 35.438 35.719 35.438s35.719-15.918 35.719-35.438c0-19.574-16.031-35.438-35.719-35.438zm0 57.379c-12.262 0-22.219-9.8438-22.219-21.938s9.957-21.938 22.219-21.938c12.262 0 22.219 9.8438 22.219 21.938s-9.957 21.938-22.219 21.938z"/>
  <path d="m328.55 251.21c7.5938-11.926 16.199-23.121 21.602-29.926 5.3984 6.8047 14.008 18 21.602 29.926 13.332 20.926 15.355 30.938 15.355 35.102 0 17.438-12.148 32.121-28.465 35.945 1.9688 4.5547 3.4883 8.7734 4.6133 12.77 15.301-4.1641 27.789-15.355 33.637-29.871v-35.156c-2.8672-7.4258-7.4805-16.031-13.836-25.988-9-14.062-19.184-27.113-24.469-33.637-2.082-2.5859-5.1758-4.0508-8.4922-4.0508-3.3203 0-6.4141 1.4609-8.4922 4.0508-5.2891 6.5234-15.469 19.574-24.469 33.637-1.5195 2.418-2.9805 4.7266-4.2734 6.9766 2.6445 3.375 5.6797 7.3125 8.8867 11.645 1.9062-3.4336 4.1562-7.2031 6.8008-11.422z"/>
 </g>
</svg>
