<?xml version="1.0" standalone="no"?>
<!DOCTYPE svg PUBLIC "-//W3C//DTD SVG 20010904//EN"
 "http://www.w3.org/TR/2001/REC-SVG-20010904/DTD/svg10.dtd">
<svg version="1.0" xmlns="http://www.w3.org/2000/svg"
 width="700.000000pt" height="700.000000pt" viewBox="0 0 700.000000 700.000000"
 preserveAspectRatio="xMidYMid meet">
<metadata>
Created by potrace 1.14, written by Peter Selinger 2001-2017
</metadata>
<g transform="translate(0.000000,700.000000) scale(0.100000,-0.100000)"
fill="#000000" stroke="none">
<path d="M4457 5292 c-81 -141 -154 -268 -162 -282 -8 -14 -38 -65 -66 -115
-76 -133 -81 -141 -144 -250 -32 -55 -108 -188 -170 -295 -62 -107 -195 -337
-295 -510 -100 -173 -193 -334 -207 -358 -13 -23 -53 -93 -89 -154 -35 -61
-64 -115 -64 -119 0 -5 -4 -9 -10 -9 -5 0 -10 -4 -10 -9 0 -5 -23 -49 -51 -98
-28 -48 -60 -104 -71 -123 -11 -19 -60 -105 -110 -190 -49 -85 -94 -164 -100
-175 -87 -152 -132 -224 -138 -220 -7 4 -68 108 -138 235 -14 25 -33 57 -43
72 -11 14 -19 28 -19 31 0 2 -29 54 -64 115 -36 61 -76 131 -89 154 -24 43
-229 390 -246 418 -6 8 -41 67 -80 130 -142 233 -466 723 -505 763 -7 7 -22
28 -36 47 -30 44 -190 250 -210 270 -8 9 -33 38 -55 65 -58 72 -288 303 -371
372 -152 128 -369 254 -527 307 -93 31 -218 54 -307 58 l-65 3 0 -232 c-1
-156 3 -233 10 -234 126 -10 215 -37 338 -101 270 -140 609 -487 943 -968 76
-109 117 -170 246 -370 90 -140 378 -620 378 -630 0 -6 5 -10 10 -10 6 0 10
-4 10 -9 0 -7 40 -80 114 -204 10 -18 127 -221 261 -452 133 -231 287 -496
342 -589 90 -153 123 -198 123 -167 0 5 14 34 31 63 47 79 70 119 94 163 12
22 41 71 64 109 22 37 41 69 41 71 0 2 19 36 43 77 24 40 55 93 69 118 14 25
92 160 173 300 82 140 158 273 171 295 12 22 70 123 129 225 60 102 117 201
128 220 57 101 90 158 106 186 34 57 243 419 269 464 14 25 89 155 167 290
282 486 325 562 325 571 0 32 32 -17 170 -259 8 -15 40 -70 70 -122 30 -52 60
-103 65 -113 24 -42 230 -399 498 -862 159 -275 299 -516 309 -535 11 -19 46
-80 78 -135 32 -55 67 -116 77 -135 31 -54 152 -263 162 -280 15 -25 294 -510
327 -569 17 -31 44 -78 61 -106 l29 -50 268 -2 c211 -1 266 1 263 11 -3 7
-117 208 -254 447 -137 239 -261 454 -275 479 -14 25 -107 186 -207 358 -99
172 -192 332 -205 355 -45 80 -346 602 -356 617 -9 15 -62 107 -121 210 -17
30 -53 92 -80 138 -27 45 -49 87 -49 92 0 6 -4 10 -10 10 -5 0 -10 4 -10 10 0
5 -22 47 -49 92 -27 46 -58 100 -69 120 -12 21 -97 169 -190 330 -94 161 -179
309 -189 328 -11 19 -75 129 -142 244 -66 115 -121 212 -121 215 -1 7 -37 51
-42 51 -1 -1 -70 -116 -151 -258z"/>
</g>
</svg>
