<?xml version="1.0" encoding="UTF-8"?>
<svg width="752pt" height="752pt" version="1.1" viewBox="0 0 752 752" xmlns="http://www.w3.org/2000/svg">
 <g>
  <path d="m423.51 526.59c-26.789 31.301-65.711 49.207-106.7 49.207-77.551 0-140.59-63.047-140.59-140.59 0-139.63 116.54-238.27 140.59-257.07 11.469 8.9531 43.953 35.961 74.59 76.586 2.4414 3.2578 7.1055 3.9219 10.359 1.4805 3.2578-2.4414 3.9219-7.1055 1.4805-10.359-39.293-52.168-80.363-81.84-82.141-83.023-2.5898-1.8516-5.9922-1.8516-8.582 0-6.2148 4.3672-151.1 109.81-151.1 272.38 0 85.688 69.707 155.39 155.39 155.39 45.359 0 88.352-19.832 117.95-54.387 2.6641-3.1094 2.293-7.7695-0.8125-10.434-3.1133-2.6641-7.7734-2.2969-10.438 0.8125z"/>
  <path d="m450 272.41c4.0703 0 7.3984-3.3281 7.3984-7.3984 0-4.0703-3.3281-7.3984-7.3984-7.3984s-7.3984-3.3281-7.3984-7.3984c0-4.0703 3.3281-7.3984 7.3984-7.3984 12.211 0 22.199 9.9883 22.199 22.199 0 12.211-9.9883 22.199-22.199 22.199l-170.2-0.007813c-4.0703 0-7.3984 3.3281-7.3984 7.3984 0 4.0703 3.3281 7.3984 7.3984 7.3984h170.19c20.422 0 37-16.574 37-37 0-20.422-16.574-37-37-37-12.211 0-22.199 9.9883-22.199 22.199 0.003906 12.215 9.9922 22.207 22.203 22.207z"/>
  <path d="m405.6 383.4h-51.797c-4.0703 0-7.3984 3.3281-7.3984 7.3984 0 4.0703 3.3281 7.3984 7.3984 7.3984h51.797c20.422 0 37-16.574 37-37 0-20.422-16.574-37-37-37-12.211 0-22.199 9.9883-22.199 22.199 0 12.211 9.9883 22.199 22.199 22.199 4.0703 0 7.3984-3.3281 7.3984-7.3984 0-4.0703-3.3281-7.3984-7.3984-7.3984-4.0703 0-7.3984-3.3281-7.3984-7.3984 0-4.0703 3.3281-7.3984 7.3984-7.3984 12.211 0 22.199 9.9883 22.199 22.199 0 12.207-9.9922 22.199-22.199 22.199z"/>
  <path d="m464.8 494.4h-140.59c-4.0703 0-7.3984 3.3281-7.3984 7.3984s3.3281 7.3984 7.3984 7.3984h140.59c12.211 0 22.199 9.9883 22.199 22.199 0 12.211-9.9883 22.199-22.199 22.199-4.0703 0-7.3984-3.3281-7.3984-7.3984 0-4.0703 3.3281-7.3984 7.3984-7.3984s7.3984-3.3281 7.3984-7.3984c0-4.0703-3.3281-7.3984-7.3984-7.3984-12.211 0-22.199 9.9883-22.199 22.199 0 12.211 9.9883 22.199 22.199 22.199 20.422 0 37-16.574 37-37 0-20.426-16.574-37-37-37z"/>
  <path d="m546.2 457.4h-103.6c-4.0703 0-7.3984 3.3281-7.3984 7.3984s3.3281 7.3984 7.3984 7.3984h103.6c12.211 0 22.199 9.9883 22.199 22.199 0 12.211-9.9883 22.199-22.199 22.199-4.0703 0-7.3984-3.3281-7.3984-7.3984 0-4.0703 3.3281-7.3984 7.3984-7.3984 4.0703 0 7.3984-3.3281 7.3984-7.3984 0-4.0703-3.3281-7.3984-7.3984-7.3984-12.211 0-22.199 9.9883-22.199 22.199 0 12.211 9.9883 22.199 22.199 22.199 20.422 0 37-16.574 37-37-0.003906-20.426-16.578-37-37-37z"/>
  <path d="m464.8 339c0 28.562 23.234 51.797 51.797 51.797 16.352 0 29.598-13.246 29.598-29.598s-13.246-29.598-29.598-29.598c-4.0703 0-7.3984 3.3281-7.3984 7.3984 0 4.0703 3.3281 7.3984 7.3984 7.3984 8.1406 0 14.801 6.6602 14.801 14.801s-6.6602 14.801-14.801 14.801c-20.422 0-37-16.574-37-37 0-20.422 16.574-37 37-37 32.633 0 59.199 26.566 59.199 59.199s-26.566 59.199-59.199 59.199l-118.39-0.003906c-4.0703 0-7.3984 3.3281-7.3984 7.3984s3.3281 7.3984 7.3984 7.3984h118.39c40.773 0 73.996-33.227 73.996-73.996 0-40.773-33.227-73.996-73.996-73.996-28.562 0-51.797 23.238-51.797 51.801z"/>
  <path d="m390.8 472.2h29.598c4.0703 0 7.3984-3.3281 7.3984-7.3984 0-4.0703-3.3281-7.3984-7.3984-7.3984h-29.598c-4.0703 0-7.3984 3.3281-7.3984 7.3984 0 4.0664 3.3281 7.3984 7.3984 7.3984z"/>
  <path d="m361.2 457.4c-4.0703 0-7.3984 3.3281-7.3984 7.3984s3.3281 7.3984 7.3984 7.3984h7.3984c4.0703 0 7.3984-3.3281 7.3984-7.3984s-3.3281-7.3984-7.3984-7.3984z"/>
  <path d="m331.6 383.4h-29.598c-4.0703 0-7.3984 3.3281-7.3984 7.3984 0 4.0703 3.3281 7.3984 7.3984 7.3984h29.598c4.0703 0 7.3984-3.3281 7.3984-7.3984 0.003906-4.0703-3.3281-7.3984-7.3984-7.3984z"/>
  <path d="m383.4 427.8c0-4.0703-3.3281-7.3984-7.3984-7.3984h-22.199c-4.0703 0-7.3984 3.3281-7.3984 7.3984 0 4.0703 3.3281 7.3984 7.3984 7.3984h22.199c4.0664 0 7.3984-3.3281 7.3984-7.3984z"/>
  <path d="m331.6 420.4h-73.996c-4.0703 0-7.3984 3.3281-7.3984 7.3984s3.3281 7.3984 7.3984 7.3984h73.996c4.0703 0 7.3984-3.3281 7.3984-7.3984 0.003906-4.0664-3.3281-7.3984-7.3984-7.3984z"/>
 </g>
</svg>
