<?xml version="1.0" encoding="UTF-8"?>
<svg width="752pt" height="752pt" version="1.1" viewBox="0 0 752 752" xmlns="http://www.w3.org/2000/svg">
 <path d="m403.94 536.41c-4.0469-11.527-15.035-19.809-27.941-19.809-16.34 0-29.598 13.262-29.598 29.598 0 16.34 13.262 29.598 29.598 29.598 14.629 0 26.793-10.633 29.176-24.59 84.156-13.941 148.41-87.125 148.41-175.2 0-18.84-2.9453-37.008-8.3906-54.047-1.2422-3.8906-5.4102-6.0469-9.3008-4.8008-3.8906 1.2422-6.0391 5.418-4.7969 9.3008 4.9961 15.629 7.6875 32.277 7.6875 49.547 0 80.332-58.301 147.15-134.85 160.4zm-205.41-153.91c2.7734 77.105 54.816 141.75 125.56 163.37 3.9062 1.1992 8.043-1.0078 9.2422-4.9141 1.1914-3.9062-1.0156-8.043-4.9141-9.2344-64.703-19.781-112.34-78.812-115.08-149.29 12.699-3.3281 22.074-14.895 22.074-28.629 0-16.34-13.262-29.598-29.598-29.598-16.34 0-29.598 13.262-29.598 29.598 0 13.824 9.4922 25.449 22.316 28.695zm206.56 76.211c5.1484 1.5547 10.609 2.3906 16.273 2.3906 31.102 0 56.348-25.254 56.348-56.355 0-41.645-25.254-79.57-50.879-107.72-2.2266-2.4492-5.8164-3.1211-8.7773-1.6445-2.9688 1.4883-4.5859 4.75-3.9648 8.0078 3.3281 17.477-2.5586 29.656-10.871 40.105-12.941-27.18-31.613-51.746-50.383-72.367-2.2266-2.4492-5.8164-3.1211-8.7773-1.6445-2.9688 1.4883-4.5859 4.75-3.9648 8.0078 6.0156 31.559-9.4883 50.727-26.023 68.285-9.2656 9.8281-18.922 19.188-26.285 29.488-8.082 11.285-13.488 23.664-13.488 38.664 0 40.328 32.734 73.07 73.07 73.07 23.457 0 44.348-11.078 57.727-28.289zm-56.453-80.434-17.582 65.621c-1.0586 3.9453 1.2891 8.0078 5.2305 9.0664 3.9453 1.0586 8.0078-1.2891 9.0664-5.2305l17.582-65.621c1.0586-3.9453-1.2891-8.0078-5.2305-9.0664-3.9453-1.0586-8.0078 1.2891-9.0664 5.2305zm64.629 67.234c2.6133 0.51953 5.3203 0.79297 8.0938 0.79297 22.934 0 41.551-18.617 41.551-41.559 0-30.672-15.496-58.91-33.766-82.137-2.3828 14.562-10.25 25.824-19.426 36.074 6.6836 17.605 10.715 36.125 10.715 55.246 0 11.309-2.5742 22.023-7.1719 31.582zm-99.496-2.2422c6.4961 0 11.773-5.2695 11.773-11.766s-5.2773-11.766-11.773-11.766c-6.4883 0-11.766 5.2695-11.766 11.766s5.2773 11.766 11.766 11.766zm65.93-33.297c6.4961 0 11.766-5.2695 11.766-11.766 0-6.4961-5.2695-11.766-11.766-11.766-6.4961 0-11.766 5.2695-11.766 11.766 0 6.4961 5.2695 11.766 11.766 11.766zm112.91-147.5c-3.5312 4.875-5.6172 10.871-5.6172 17.344 0 16.34 13.262 29.598 29.598 29.598 16.34 0 29.598-13.262 29.598-29.598 0-16.34-13.262-29.598-29.598-29.598-4.4844 0-8.7383 1-12.543 2.7891-32.32-33.641-77.762-54.586-128.05-54.586-73.359 0-136.39 44.574-163.46 108.09-1.5977 3.7578 0.15625 8.1094 3.9062 9.707 3.7578 1.5977 8.1094-0.14844 9.707-3.9062 24.82-58.227 82.594-99.098 149.84-99.098 45.707 0 87.035 18.875 116.61 49.254z" fill-rule="evenodd"/>
</svg>
