<?xml version="1.0" encoding="UTF-8"?>
<svg width="752pt" height="752pt" version="1.1" viewBox="0 0 752 752" xmlns="http://www.w3.org/2000/svg">
 <g>
  <path d="m475.55 357.35c6.4922 0 12.801-2.6016 17.41-7.207 4.8203-4.832 7.4453-11.492 7.1992-18.285-0.14844-3.9258-3.5312-6.957-7.3633-6.8398-3.9219 0.14062-6.9844 3.4375-6.832 7.3594 0.097656 2.9062-0.98047 5.6484-3.0547 7.7305-2.0352 2.0352-4.8125 3.0586-7.6406 3.0352-3.9492-0.09375-7.1992 2.9805-7.3086 6.8984-0.10938 3.9219 2.9805 7.1953 6.8984 7.3008 0.23047 0.007812 0.46094 0.007812 0.69141 0.007812z"/>
  <path d="m287.82 258.84c0-11.387-7.4844-22.113-15.402-33.469-5.5391-7.9414-11.266-16.152-14.598-24.773l-6.5977-17.09-6.6484 17.074c-3.3086 8.5039-8.9961 16.68-14.512 24.59-7.9648 11.441-15.484 22.25-15.484 33.668 0 20.109 16.43 36.461 36.617 36.461 20.191-0.007813 36.625-16.355 36.625-36.461zm-59.031 0c0-6.9609 6.2812-15.988 12.938-25.551 3.0977-4.457 6.4258-9.2344 9.4531-14.293 3.0586 5.1367 6.4375 9.9844 9.582 14.5 6.6055 9.4727 12.848 18.422 12.848 25.34 0 12.27-10.055 22.254-22.41 22.254-12.355 0.003906-22.41-9.9766-22.41-22.25z"/>
  <path d="m373.89 485.95c0 8.957 7.2891 16.238 16.234 16.238 8.957 0 16.242-7.2852 16.242-16.238 0-8.9492-7.2891-16.234-16.242-16.234-8.9453 0.003906-16.234 7.2852-16.234 16.234z"/>
  <path d="m242.19 454.44c0 62.98 51.336 114.05 114.65 114.05 63.305 0 114.65-51.066 114.65-114.05 0-62.992-82.207-132.3-114.65-216.3-32.445 83.348-114.65 153.31-114.65 216.3zm50.898-29.371c0-16.812 13.625-30.438 30.453-30.438 16.809 0 30.441 13.625 30.441 30.438 0 16.816-13.633 30.445-30.441 30.445-16.828 0-30.453-13.629-30.453-30.445zm127.49 60.883c0 16.812-13.633 30.445-30.453 30.445-16.816 0-30.441-13.629-30.441-30.445s13.625-30.441 30.441-30.441c16.82 0 30.453 13.629 30.453 30.441zm-16.5-93.168c3.1172 2.3789 3.7188 6.8398 1.3398 9.9609l-81.941 107.29c-1.4062 1.8281-3.5156 2.7891-5.6484 2.7891-1.5078 0-3.0273-0.47266-4.3086-1.457-3.1172-2.3789-3.7188-6.8398-1.332-9.9609l81.945-107.29c2.3672-3.1172 6.832-3.7188 9.9453-1.332z"/>
  <path d="m339.77 425.07c0-8.9492-7.2773-16.23-16.234-16.23-8.9648 0-16.242 7.2852-16.242 16.23 0 8.957 7.2773 16.238 16.242 16.238 8.9531 0 16.234-7.2891 16.234-16.238z"/>
  <path d="m508.61 267.89c-11.055-16.074-22.477-32.691-29.266-50.547l-6.6055-17.371-6.668 17.352c-6.7617 17.609-18.109 34.145-29.094 50.133-8.5664 12.48-16.844 24.566-22.352 36.453 3.1875 4.7422 6.4141 9.457 9.6523 14.141 4.1914-13.074 14.078-27.496 24.418-42.555 8.4258-12.281 17.066-24.867 23.977-38.312 6.9648 13.648 15.703 26.355 24.223 38.754 13.531 19.684 26.309 38.273 26.309 54.195 0 28.141-22.652 51.031-50.504 51.031-2.2891 0-4.5312-0.20703-6.7422-0.50781 2.8594 4.8984 5.5312 9.7812 7.9922 14.652 35.098-0.68359 63.457-29.633 63.457-65.18 0.007813-20.324-13.988-40.68-28.797-62.238z"/>
 </g>
</svg>
