<?xml version="1.0" encoding="UTF-8"?>
<svg width="752pt" height="752pt" version="1.1" viewBox="0 0 752 752" xmlns="http://www.w3.org/2000/svg">
 <g>
  <path d="m376 213.21c7.875 0.125 15.223-3.9297 19.316-10.656 3.6875-6.1602 3.8555-13.809 0.44141-20.125l-13.246-24.492c-1.2891-2.3945-3.7891-3.8867-6.5117-3.8867-2.7188 0-5.2188 1.4922-6.5117 3.8867l-13.242 24.492c-3.4141 6.3164-3.2461 13.965 0.44141 20.125 4.0938 6.7266 11.441 10.781 19.312 10.656z"/>
  <path d="m242.81 250.21c7.8711 0.125 15.219-3.9297 19.312-10.656 3.6875-6.1602 3.8555-13.809 0.44141-20.129l-13.242-24.492c-1.293-2.3906-3.793-3.8828-6.5117-3.8828-2.7227 0-5.2227 1.4922-6.5117 3.8828l-13.246 24.492c-3.4141 6.3203-3.2461 13.969 0.44141 20.129 4.0938 6.7266 11.441 10.781 19.316 10.656z"/>
  <path d="m509.2 250.21c7.8711 0.125 15.223-3.9297 19.312-10.656 3.6914-6.1602 3.8594-13.809 0.44531-20.129l-13.246-24.492c-1.2891-2.3906-3.793-3.8828-6.5117-3.8828s-5.2188 1.4922-6.5117 3.8828l-13.246 24.492c-3.4141 6.3203-3.2422 13.969 0.44531 20.129 4.0938 6.7266 11.441 10.781 19.312 10.656z"/>
  <path d="m198.41 435.2h5.7734-0.003906c2.7109 0.007812 5.2109-1.4688 6.5117-3.8477 4.8555-8.0508 11.75-14.672 19.988-19.195 8.2422-4.5195 17.531-6.7852 26.926-6.5547 9.3984-0.23047 18.688 2.0352 26.926 6.5547 8.2383 4.5234 15.137 11.145 19.988 19.195 1.3008 2.3789 3.8008 3.8555 6.5117 3.8477h11.543c2.7148 0.007812 5.2109-1.4688 6.5117-3.8477 8.3789-14.262 23.059-23.664 39.516-25.309v162.35c0 13.219 7.0508 25.434 18.5 32.039 11.445 6.6094 25.551 6.6094 36.996 0 11.449-6.6055 18.5-18.82 18.5-32.039v-22.199h-14.797v22.199c0 7.9297-4.2344 15.258-11.102 19.223-6.8672 3.9688-15.332 3.9688-22.199 0-6.8672-3.9648-11.098-11.293-11.098-19.223v-162.35c16.453 1.6445 31.137 11.047 39.512 25.309 1.3047 2.3789 3.8008 3.8555 6.5117 3.8477h11.547c2.7109 0.007812 5.207-1.4688 6.5117-3.8477 10.219-16.023 27.906-25.723 46.914-25.723 19.004 0 36.691 9.6992 46.914 25.723 1.3008 2.3789 3.7969 3.8555 6.5117 3.8477h5.7695c1.9648 0 3.8438-0.78125 5.2344-2.168 1.3867-1.3867 2.1641-3.2695 2.1641-5.2305 0.039062-47.809-18.43-93.773-51.539-128.26-33.109-34.488-78.281-54.82-126.05-56.73v-14.801h-14.801v14.801c-47.77 1.9102-92.941 22.242-126.05 56.73-33.109 34.488-51.582 80.453-51.543 128.26 0 1.9609 0.78125 3.8438 2.168 5.2305s3.2695 2.168 5.2344 2.168zm177.59-175.67c44.988 34.336 66.078 95.457 54.238 156.36h0.003907c-13.527-15.914-33.355-25.086-54.242-25.086-20.883 0-40.715 9.1719-54.238 25.086-11.84-60.902 9.25-122.02 54.238-156.36z"/>
 </g>
</svg>
