<?xml version="1.0" encoding="UTF-8"?>
<svg width="752pt" height="752pt" version="1.1" viewBox="0 0 752 752" xmlns="http://www.w3.org/2000/svg">
 <defs>
  <clipPath id="b">
   <path d="m136 284h464v214h-464z"/>
  </clipPath>
  <clipPath id="a">
   <path d="m52.539 289.33 410.13-236.79 236.79 410.13-410.13 236.79z"/>
  </clipPath>
 </defs>
 <g clip-path="url(#b)">
  <g clip-path="url(#a)">
   <path d="m146.14 386.14 1.7695-1.0195c3.8086 2.5156 14.965 5.5039 16.73 4.4844-2.7891-0.74609-14.965-5.5039-15.984-7.2695 0.74609-2.7891 8.5664-9.6602 14.141-8.1641 1.0195 1.7695 15.984 7.2695 17.75 6.25-3.8086-2.5156-14.965-5.5039-17.004-9.0391 1.7695-1.0195 16.184-4.6289 17.953-5.6484 2.7891 0.74609 4.5547-0.27344 6.3242-1.293 6.5977 3.2617 40.879 25.898 40.879 25.898-3.0625-5.3047-38.09-25.148-36.324-26.172 0 0 11.629-4.3555 17.203-2.8633 2.043 3.5352 9.6602 8.5664 12.449 9.3125-2.043-3.5352-11.426-7.5469-12.449-9.3125 3.5352-2.043 12.648-2.5898 13.668-0.82031 6.8711 7.8203 15.512 14.617 22.383 22.434-1.0195-1.7695-19.594-21.688-20.613-23.457 5.3047-3.0625 23.328 7.7461 23.328 7.7461-3.8086-2.5156-19.047-12.574-20.066-14.344 1.7695-1.0195 5.3047-3.0625 6.3242-1.293 8.6406 6.7969 22.109 17.879 28.707 21.141-3.0625-5.3047-25.918-20.395-25.168-23.184 2.7891 0.74609 2.7891 0.74609 2.7891 0.74609 15.238 10.059 26.938 22.16 38.637 34.262-2.3164-8.0938-33.062-32.77-34.082-34.535 9.8594-3.3359 29.453 18.352 38.09 25.148-2.043-3.5352-24.148-21.414-25.168-23.184 1.7695-1.0195 21.559 8.7656 25.371 11.281 5.5781 1.4961 14.488 12.848 20.34 18.898 0.74609-2.7891-8.9141-11.355-10.953-14.891 5.5781 1.4961 14.488 12.848 17.277 13.594-4.3555-11.629-17.078-25.496-26.738-34.062-3.8086-2.5156-24.895-18.625-24.895-18.625s6.3242-1.293 9.1133-0.54688c2.7891 0.74609 13.469 11.082 17.277 13.594-2.7891-0.74609-13.469-11.082-12.723-13.867 4.5547-0.27344 12.449 9.3125 16.258 11.828-2.043-3.5352-9.6602-8.5664-10.68-10.332 1.7695-1.0195 4.5547-0.27344 6.3242-1.293 2.7891 0.74609 2.7891 0.74609 3.8086 2.5156 5.8516 6.0508 37.145 39.84 39.457 47.93 2.5156-3.8086-42.047-60.578-38.512-62.621l3.5352-2.043c4.082 7.0703 15.785 19.172 18.844 24.477 0 0-11.973-16.656-14.016-20.191 2.7891 0.74609 5.5781 1.4961 6.5977 3.2617 3.8086 2.5156 4.8281 4.2812 6.8711 7.8203-1.0195-1.7695-1.0195-1.7695-2.043-3.5352 5.5781 1.4961 51.633 52.688 64.828 59.211-1.0195-1.7695-2.7891-0.74609-3.8086-2.5156-12.723-13.867-52.379-49.898-55.242-67.105 6.5977 3.2617 48.371 59.285 63.332 64.789-1.8398-15.438-44.289-52.215-48.645-63.84 9.1133-0.54688 19.047 12.574 23.875 16.859 0 0-5.8516-6.0508-5.8516-6.0508 13.941 3.7344 48.297 42.828 57.684 46.836-2.3164-8.0938-38.711-50.719-43.066-62.348l5.5781 1.4961c2.043 3.5352 10.953 14.891 11.973 16.656 0.74609-2.7891-7.8906-9.5859-8.1641-14.141 1.0195 1.7695 2.7891 0.74609 3.8086 2.5156 1.0195 1.7695 10.953 14.891 12.996 18.426 0.74609-2.7891-7.1445-12.375-8.1641-14.141 10.133 1.2227 33.336 37.324 40.953 42.355 0.74609-2.7891-0.27344-4.5547-1.293-6.3242-12.793-30.328-4.4297-28.086-7.8398-54.402 0.74609-2.7891 1.2227-10.133 2.9883-11.152 3.8086 2.5156 1.9141 31.895 5.25 41.754 0.74609-2.7891-3.4102-26.316-2.6602-29.105 1.7695-1.0195 16.402 44.742 28.578 49.5-3.4102-26.316 14.07-24.621-0.56641-70.387 15.035 21.961 8.1133 58.957 9.1328 60.727 3.5352-2.043 5.7773-10.406 4.7578-12.176 2.2422-8.3672 3.4609-18.5 4.6836-28.633l0.94922-14.691c3.8828 18.973 0.14844 32.914 0.21875 49.371 0.74609-2.7891 6.25-17.75 8.0195-18.773 0.27344 4.5547-1.1484 26.59-2.6406 32.168-1.4961 5.5781-2.5156 3.8086-7.8203 6.8711 8.3672 2.2422 121.23-67.637 136.67-69.477-5.7773 10.406-106.82 64.027-130.07 72.738 11.152 2.9883 6.8711 7.8203 15.512 14.617 4.8281 4.2812 12.449 9.3125 15.238 10.059-4.5547 0.27344-8.3672-2.2422-11.152-2.9883 2.7891 0.74609 18.773 8.0195 18.773 8.0195-19.992 2.1133-42.375-20.32-44.141-19.301-0.74609 2.7891 6.3984 15.164 6.3984 15.164-1.7695 1.0195-3.8086-2.5156-4.8281-4.2812-1.4961 5.5781 22.656 26.992 25.715 32.293-10.879 1.5664-25.918-20.395-32.789-28.211l-3.0625-5.3047c0.27344 4.5547 8.2383 30.602 6.4688 31.621-1.0195-1.7695-2.043-3.5352-2.043-3.5352s1.293 6.3242 2.3164 8.0938c0.27344 4.5547 0.89453 30.125 0.14844 32.914-3.0625-5.3047-4.1562-23.527-7.2188-28.832l1.0195 1.7695c-3.0625-5.3047-9.5312-36.926-16.879-37.398 0.27344 4.5547 11.922 61.473 6.6172 64.535-2.043-3.5352-2.5898-12.648-3.8828-18.973-0.27344-4.5547-0.82031-13.668-2.8633-17.203-0.74609 2.7891 2.5898 12.648 1.8398 15.438-2.3164-8.0938-7.2188-28.832-11.301-35.902-1.4961 5.5781 3.8281 63.789 0.29297 65.828-3.3359-9.8594-4.3008-56.441-14.438-57.664-10.332 10.68 7.0898 57.191 12.469 70.586-6.5977-3.2617-20.688-39.914-21.234-49.023 0 0 2.6602 29.105-6.3789 46.109-0.27344-4.5547 2.7148-15.711 2.4414-20.266-0.74609 2.7891-1.9688 12.922-3.7344 13.941-2.043-3.5352 2.4414-20.266 0.40234-23.801-2.5156 3.8086-2.7148 15.711-6.25 17.75 0.47266-7.3438 5.2305-19.52 3.9375-25.844 1.0195 1.7695-5.4297 31.422-8.9648 33.461 0.47266-7.3438 5.7031-26.863 5.4297-31.422-3.2617 6.5977-13.797 29.18-20.867 33.262-1.0195-1.7695 2.5156-3.8086 1.4961-5.5781 4.7578-12.176 13.523-33.734 10.934-46.383-0.19922 11.902-15.766 42.102-24.602 47.203-0.27344-4.5547 4.4844-16.73 3.4609-18.5 0 0-4.7578 12.176-5.5039 14.965-2.2422 8.3672-1.4961 5.5781-8.8398 5.1016 0 0-1.7695 1.0195-3.5352 2.043-0.27344-4.5547 1.4961-5.5781-0.54688-9.1133l0.27344 4.5547c-1.4961 5.5781-10.059 15.238-14.617 15.512-2.043-3.5352-0.82031-13.668-1.0938-18.227 0 0-1.6953 17.477-0.67578 19.246-1.7695 1.0195-3.5352 2.043-6.3242 1.293-5.3047 3.0625-3.3359-9.8594-5.375-13.395 1.0195 1.7695 0.82031 13.668-0.94922 14.691 1.0195 1.7695-16.184 4.6289-17.953 5.6484 0.74609-2.7891 0.19922-11.902 0.94922-14.691-1.7695 1.0195-1.9688 12.922-0.94922 14.691-1.7695 1.0195-14.414 3.6094-17.203 2.8633 0 0 8.0195-18.773 5.9766-22.309-1.4961 5.5781-6.9961 20.539-10.535 22.582-0.74609 2.7891-8.0938 2.3164-9.1133 0.54688 1.7695-1.0195 6.5234-13.195 8.0195-18.773-2.5156 3.8086-8.0195 18.773-10.809 18.023-1.7695 1.0195-3.8086-2.5156-5.5781-1.4961 0 0-9.5859 7.8906-17.203 2.8633 7.0703-4.082 6.7969-8.6406 6.5234-13.195-5.3047 3.0625-0.19922 11.902-13.867 12.723-1.7695 1.0195-4.5547 0.27344-9.1133 0.54688 1.7695-1.0195 9.0391-17.004 9.7852-19.793-1.7695 1.0195-9.7852 19.793-11.555 20.812l-17.953 5.6484c-1.0195-1.7695 2.5156-3.8086 2.5156-3.8086 0.74609-2.7891 6.5234-13.195 7.2695-15.984-4.5547 0.27344-25.297 5.1758-29.105 2.6602 7.0703-4.082 40.461-11.574 44.121-41.973-11.754 32.715-72.68 53.746-82.488 12.266 0 0 11.426 7.5469 14.965 5.5039-4.5547 0.27344-14.215-8.293-18.023-10.809-3.8086-2.5156-8.4375-18.699-8.7109-23.254 1.7695-1.0195 14.965 5.5039 17.75 6.25-1.0195-1.7695-17.004-9.0391-17.004-9.0391-2.043-3.5352 0.19922-11.902 0.94922-14.691 1.7695-1.0195 12.922 1.9688 15.711 2.7148-3.8086-2.5156-11.152-2.9883-14.965-5.5039-0.27344-4.5547 4.7578-12.176 7.2695-15.984z" fill-rule="evenodd"/>
  </g>
 </g>
</svg>
