<?xml version="1.0" encoding="UTF-8"?>
<svg width="752pt" height="752pt" version="1.1" viewBox="0 0 752 752" xmlns="http://www.w3.org/2000/svg">
 <g>
  <path d="m465.04 168.57c12.785 3.7891 15.629 14.68 17.051 26.047v0.94531c0 4.2617 0.94531 7.5781 5.2109 10.891 8.9961 6.6289 9.4727 20.836 1.8945 30.781-2.3672 2.8398-4.7344 5.2109-8.0508 7.1055-9.9453 5.6836-20.363 9.9453-30.309 14.68-12.785 6.1562-24.625 13.262-33.625 24.625-2.3672 3.3164-5.6836 5.6836-9.9453 7.5781-1.4219 0.47266-2.3672 0.47266-1.8945-1.4219 0.94531-7.1055 3.7891-13.262 8.0508-18.941 6.6289-8.9961 14.68-16.574 22.258-24.152 4.2617-4.2617 5.6836-8.0508 3.7891-11.84-2.3672-4.2617-8.5234-6.1562-13.262-4.2617-3.3164 1.4219-5.6836 3.3164-6.6289 6.6289-0.47266 0.94531-0.47266 1.4219-0.94531 2.3672-1.8945 3.7891-4.7344 4.7344-8.5234 1.8945-1.8945-1.4219-3.3164-3.7891-4.2617-5.6836-0.94531-1.8945-1.8945-1.8945-3.7891-1.4219-3.7891 1.4219-5.6836 4.2617-7.5781 7.5781-2.8398 6.1562-3.3164 12.785-4.7344 18.941-1.4219 6.6289 0 13.262 1.4219 19.891 0 0.94531 0.94531 2.8398-0.47266 2.8398-1.4219 0.47266-2.3672-0.94531-2.8398-1.8945-8.0508-22.73-12.312-45.465-4.7344-69.145 3.3164-10.418 8.9961-18.941 17.051-26.047 4.7344-4.2617 9.9453-6.6289 16.574-5.6836 2.8398 0.47266 5.6836 1.8945 7.5781 4.2617 3.7891 4.7344 7.1055 4.2617 10.418 0 1.8945-1.8945 3.3164-4.2617 4.7344-6.6289 3.3164-5.2109 8.0508-8.9961 14.68-9.9453 0.94531 0 1.8945 0 2.3672-0.94531 2.832 0.95703 5.6719 0.95703 8.5156 0.95703z"/>
  <path d="m396.37 583.43c-0.94531-1.4219-2.3672-1.8945-3.3164-2.3672-25.574-12.312-41.203-40.727-37.887-69.145 1.4219-11.367 4.7344-21.785 12.312-30.781 4.7344-6.1562 11.367-9.9453 18.941-11.367 0 2.8398-0.94531 5.6836-1.8945 8.5234-3.7891 9.9453-6.6289 19.418-8.0508 29.836-1.4219 10.891-1.4219 21.785 3.7891 32.203 1.4219 2.8398 3.3164 5.6836 6.1562 8.0508 3.7891 2.8398 6.6289 1.8945 7.5781-2.3672 1.4219-4.2617 1.4219-8.5234 1.8945-12.785 0.47266-14.207 0.47266-28.414 2.3672-42.621 0.94531-8.9961 3.3164-17.996 6.6289-26.52 2.3672-5.6836 5.6836-10.418 10.891-14.207 6.1562-3.7891 10.418-3.7891 15.629 0.94531 7.5781 7.1055 11.84 16.102 13.262 26.047 2.8398 17.996-1.8945 34.57-9.9453 50.199-5.2109 10.418-12.785 19.891-18.941 29.836-2.3672 3.7891-4.7344 8.0508-7.1055 12.312-1.4219 2.3672-2.3672 4.2617-2.8398 7.1055-0.47266 3.3164-2.8398 5.2109-5.6836 7.1055-0.47266-0.003906-2.3672-0.003906-3.7852-0.003906z"/>
  <path d="m557.86 448.93c-8.9961 15.156-23.68 20.836-39.781 24.152-10.418 2.3672-21.312 2.3672-32.203 0.94531-16.102-2.3672-27.941-11.367-35.52-25.102-4.7344-8.9961-8.5234-18.469-9.9453-28.887-0.47266-4.7344-0.94531-9.4727 0.94531-14.207 0.47266-0.94531 0.47266-1.8945 1.4219-1.8945 0.94531 0 1.4219 0.94531 1.4219 1.8945 11.367 16.102 24.625 29.836 42.621 38.832 11.84 5.6836 24.625 6.6289 37.414 2.8398 1.8945-0.47266 3.7891-1.4219 5.2109-2.3672 3.7891-2.3672 3.7891-6.6289 0.47266-9.4727-1.8945-1.8945-4.7344-2.8398-7.5781-3.7891-8.5234-2.3672-17.523-3.3164-26.52-4.2617-13.262-1.4219-24.625-6.6289-33.625-16.574-2.3672-2.3672-4.7344-4.2617-7.1055-7.1055 4.2617-0.94531 8.0508-0.94531 11.84-1.8945 8.9961-1.4219 16.102-5.6836 20.836-13.734 1.4219-2.3672 2.8398-4.2617 4.2617-6.1562 1.8945-2.8398 4.2617-3.7891 7.1055-3.7891 2.8398 0 5.6836 0 8.5234 0.94531 15.156 5.2109 26.992 13.734 34.098 28.887 5.2109 11.367 10.418 22.73 14.207 34.57 0 0.47266 0 1.4219 0.94531 1.8945 0.95312 0.95703 0.95312 2.8516 0.95312 4.2734z"/>
  <path d="m194.14 302.12c1.4219-1.4219 3.3164-2.8398 4.7344-4.2617 1.4219-1.4219 2.3672-2.8398 2.3672-5.2109v-4.2617c0-5.2109 1.4219-7.5781 6.1562-9.4727 2.8398-1.4219 5.6836 0 6.1562 3.3164v3.7891c-0.94531 4.2617 0.94531 7.5781 4.7344 8.9961 5.6836 2.3672 10.891 0.47266 16.574-1.4219 0.94531-0.47266 2.3672-0.94531 3.3164-1.8945 1.8945-0.94531 2.8398-2.3672 2.8398-4.2617s-1.4219-2.8398-2.8398-3.7891c-0.94531-0.47266-2.3672-0.47266-3.3164-0.47266-2.3672-0.47266-4.7344-2.3672-4.7344-4.7344 0-2.8398 1.8945-5.2109 4.2617-6.1562 2.3672-0.47266 4.7344 0.94531 5.6836 3.3164 0.94531 2.8398 2.3672 5.6836 4.7344 7.5781 4.7344 4.2617 9.9453 4.7344 14.68 0.47266 2.3672-1.8945 2.3672-4.7344 0-6.6289-1.4219-0.94531-2.3672-1.4219-4.2617-1.8945-2.3672-0.47266-3.7891-1.8945-4.2617-4.2617-0.47266-2.3672 0-5.2109 1.8945-7.1055s5.2109-0.94531 6.6289 1.8945c1.8945 3.7891 3.3164 7.5781 5.6836 11.367 2.8398 3.7891 6.1562 4.7344 10.418 3.3164 4.2617-1.4219 5.2109-4.7344 2.3672-8.0508-1.4219-1.4219-2.8398-2.8398-4.7344-3.7891-2.3672-1.4219-2.8398-3.3164-1.8945-5.6836 0.94531-2.3672 3.7891-4.2617 6.1562-3.7891 2.3672 0.47266 3.7891 1.8945 4.2617 4.7344v3.3164c0 6.6289 4.2617 10.891 10.418 11.367 3.3164 0.47266 6.6289-0.47266 9.9453-0.94531 15.156-1.4219 29.836 0 44.988 3.3164 14.207 3.3164 26.992 8.5234 38.832 17.523 2.8398 2.3672 6.1562 4.2617 7.1055 8.0508 0.94531 4.7344-0.47266 8.5234-3.7891 11.367-2.8398 2.8398-6.6289 4.2617-11.367 3.3164-8.9961-2.3672-16.102-8.0508-24.152-12.312-18.469-9.9453-37.887-17.523-59.199-20.363-4.7344-0.47266-9.4727-0.94531-14.207-0.94531-4.2617 0-6.6289 2.3672-6.6289 6.6289v7.5781c0 3.7891-1.8945 6.1562-5.2109 5.6836-3.3164 0-5.2109-2.8398-4.7344-6.6289 0.47266-3.3164 1.8945-6.6289 4.2617-8.5234 1.4219-1.4219 0.94531-1.8945 0-2.8398-0.47266-0.47266-0.94531-0.94531-1.4219-0.94531-3.7891-1.4219-7.5781 0-10.418 2.3672-2.8398 1.8945-4.7344 4.7344-4.2617 8.9961 0.47266 2.8398 0.47266 6.1562-0.47266 8.9961-0.94531 1.8945-1.8945 3.3164-3.7891 3.3164-2.3672 0-4.7344-1.4219-5.6836-3.7891-0.94531-1.8945 0-3.3164 1.4219-4.7344 0.94531-1.4219 2.8398-2.3672 3.7891-3.3164 1.4219-1.4219 2.3672-2.8398 1.4219-4.7344-0.94531-1.8945-2.8398-1.8945-4.2617-1.8945-3.7891 0-6.6289 1.8945-8.9961 3.7891-2.3672 1.8945-4.2617 3.7891-6.6289 5.6836-2.8398 2.3672-3.3164 5.6836-1.8945 8.9961 0.94531 1.8945 1.8945 3.7891 2.3672 5.6836 0.47266 1.4219 1.4219 2.8398 1.4219 4.2617 0.47266 4.7344-2.8398 7.5781-7.1055 5.6836-3.7891-1.4219-8.0508-1.4219-11.84-1.4219-1.4219 0-2.8398 0-3.7891-0.47266-2.3672-0.47266-3.7891-1.8945-3.7891-4.7344 0.47266-2.8398-0.94531-4.7344-2.8398-6.6289-2.3672-2.3672-4.7344-4.7344-6.6289-8.0508-0.46875-1.9102-0.46875-2.8594-0.46875-4.2812z"/>
  <path d="m350.9 319.64c-4.7344 4.7344-10.891 6.1562-16.574 7.1055-5.2109 1.418-10.422 1.8945-15.156 3.3125-5.2109 1.4219-9.9453 3.7891-13.262 8.5234-3.7891 5.2109-2.3672 11.84 3.3164 15.156 4.7344 2.8398 10.418 1.8945 15.629-0.94531 8.9961-5.2109 17.523-11.367 26.992-15.629 5.6836-2.3672 9.4727-1.4219 12.312 2.3672 0.94531 1.4219 1.4219 2.8398 0 4.7344-3.3164 5.6836-6.1562 10.891-8.5234 17.051-0.47266 0.94531-0.47266 2.3672-0.94531 3.7891-1.8945 8.5234 3.7891 14.68 12.785 13.262 4.7344-0.94531 8.0508 0.47266 10.891 3.7891 1.8945 2.3672 3.7891 4.7344 5.6836 7.1055 4.2617 4.7344 9.9453 4.2617 12.785-1.8945 2.3672-4.7344 1.8945-9.9453 0.47266-14.68-1.4219-5.2109-3.7891-9.9453-5.6836-15.156-1.4219-3.7891-2.8398-7.5781-1.8945-11.84 0-0.94531 0.47266-1.8945 0.94531-2.3672 0.94531-1.8945 1.8945-2.3672 3.3164-0.47266 1.4219 2.3672 2.3672 5.2109 3.3164 7.5781 2.8398 10.418 8.0508 19.891 14.207 28.887 4.7344 7.1055 9.4727 14.207 13.262 21.785 2.8398 6.1562 4.2617 12.785 4.2617 19.418 0 2.8398-0.94531 5.2109-2.3672 7.5781-3.7891 5.2109-8.5234 8.9961-13.734 12.785-5.6836 4.2617-11.367 8.9961-15.629 15.156-1.4219 1.8945-3.7891 2.8398-6.1562 3.7891-11.84 4.7344-22.258 1.4219-28.887-9.9453-2.3672-3.7891-4.2617-8.0508-6.6289-12.312-2.3672-3.7891-4.7344-7.5781-9.9453-8.0508-2.3672 0-4.2617 0-6.1562 0.94531-1.8945 0.47266-3.3164 0.47266-5.2109 0-8.9961-2.8398-13.262-9.4727-14.68-17.996-0.94531-7.1055 0.47266-13.262 3.7891-19.891 4.2617-8.5234 10.891-15.629 16.574-23.207 4.2617-5.2109 8.0508-10.418 10.891-16.574 0.94531-1.8945 0.47266-2.8398-1.4219-3.3164-4.7344-1.4219-8.5234-0.47266-11.84 2.8398-3.7891 3.3164-6.1562 8.0508-8.0508 12.312-4.2617 9.4727-8.5234 18.941-13.734 28.414-4.7344 7.5781-9.9453 14.68-18.469 18.469-7.1055 3.3164-11.84 1.8945-15.156-5.2109-1.4219-2.8398-2.3672-6.1562-4.2617-8.9961-2.3672-4.7344-4.7344-5.6836-9.9453-4.2617-4.2617 1.4219-8.5234 1.4219-12.312-0.94531-6.1562-3.7891-7.1055-12.312-1.4219-17.523 1.8945-1.8945 2.3672-3.7891 2.3672-6.1562 0-7.1055 0.94531-14.207 3.3164-21.312 2.8398-7.1055 7.5781-12.312 14.68-16.574 8.9961-5.2109 17.996-9.9453 27.941-12.312 16.109-4.7383 32.211-4.2656 48.312 1.418z"/>
  <path d="m449.41 299.75v-0.94531c0-6.6289-3.7891-9.4727-10.418-8.0508-2.8398 0.94531-5.2109 2.3672-8.0508 4.2617s-6.1562 4.2617-9.4727 5.6836c-2.8398 1.4219-5.6836 1.8945-8.5234 1.4219-1.4219-0.47266-2.3672-0.47266-0.94531-2.3672 12.312-14.68 25.574-27.941 42.621-36.465 10.418-5.2109 21.312-6.6289 32.676-5.6836 5.6836 0.47266 9.9453 3.7891 13.262 7.5781 4.2617 4.7344 7.1055 9.9453 10.418 15.156 2.8398 4.2617 5.6836 8.0508 9.9453 10.891 8.5234 6.6289 10.891 16.102 10.418 26.047-0.47266 8.5234-3.7891 15.629-8.5234 22.258-2.8398 3.7891-6.6289 6.1562-10.418 8.0508-3.7891 1.8945-7.1055 3.3164-10.891 5.2109-2.3672 1.4219-4.7344 2.8398-7.1055 4.7344-2.3672 2.3672-3.7891 4.7344-4.2617 8.5234-1.8945 12.785-8.0508 23.207-19.418 29.363-8.9961 4.7344-17.996 3.3164-26.992-0.47266-13.262-6.6289-23.207-17.051-31.258-29.363-5.6836-8.9961-9.9453-18.469-11.367-28.887v-3.3164c0.47266-1.8945 0.47266-4.7344 2.3672-5.2109 2.3672-0.94531 4.2617 0.47266 6.1562 2.3672 2.8398 2.8398 5.2109 5.6836 6.1562 9.4727 2.8398 8.0508 14.207 13.734 22.258 10.891 5.2109-1.8945 7.1055-6.6289 5.2109-12.785-0.47266-1.4219-0.94531-2.8398-1.4219-4.7344-0.47266-2.8398 0.47266-3.7891 3.3164-3.7891 3.3164 0 6.1562 1.4219 9.4727 2.3672 3.7891 0.94531 7.1055 1.4219 10.891 0.47266 6.6289-1.4219 9.9453-5.6836 9.4727-12.312-0.47266-6.1562-5.6836-11.367-11.84-11.84-1.4219 0-3.3164 0-4.7344 0.47266-1.8945 0.47266-3.3164 0.94531-5.2109 0.47266-3.3164-0.47266-4.7344-1.8945-4.7344-5.2109 0.94531-1.8945 0.94531-3.3125 0.94531-4.2617z"/>
  <path d="m371.27 209.3c0 4.2617-0.94531 9.9453-1.4219 15.156-1.8945 12.785 0 25.574 3.7891 37.887 0.94531 2.8398 1.4219 5.2109 2.8398 8.0508 0.94531 2.3672-0.47266 2.3672-1.8945 2.3672-2.3672-0.47266-3.7891-1.8945-5.2109-3.7891-2.8398-4.2617-4.2617-8.9961-6.1562-13.262-3.7891-8.0508-8.5234-16.102-13.262-23.68-1.4219-1.8945-2.8398-3.7891-4.7344-5.6836-1.8945-1.8945-4.2617-3.3164-7.1055-3.7891-8.5234-1.8945-11.84 2.8398-11.84 10.418 0 4.2617 2.3672 8.5234 4.7344 12.312 2.3672 4.2617 5.2109 8.9961 8.0508 13.262 1.8945 2.8398 4.7344 4.7344 7.1055 6.6289 3.3164 2.8398 7.1055 5.2109 9.9453 8.5234 1.4219 1.4219 3.3164 2.8398 1.8945 4.7344-0.94531 1.8945-3.3164 1.8945-5.2109 1.4219-9.4727-1.4219-18.469-3.3164-26.992-7.1055-13.734-5.6836-26.047-13.262-35.047-25.102-3.7891-5.2109-7.1055-11.367-8.9961-17.523-1.4219-4.2617-0.47266-8.0508 1.4219-11.367 1.8945-3.3164 4.2617-5.6836 6.6289-8.5234 3.3164-4.2617 4.7344-8.9961 2.3672-14.207-1.4219-2.3672 0-5.2109 0.94531-8.0508 4.7344-13.734 24.152-21.312 35.992-9.4727 3.3164 3.3164 7.5781 3.7891 11.84 2.8398 3.3164-0.47266 6.1562-1.4219 8.9961-2.3672 5.2109-1.4219 9.4727 0.47266 13.262 4.7344 5.6914 7.5898 8.0586 14.219 8.0586 25.586z"/>
 </g>
</svg>
