<?xml version="1.0" encoding="UTF-8"?>
<svg width="752pt" height="752pt" version="1.1" viewBox="0 0 752 752" xmlns="http://www.w3.org/2000/svg">
 <g>
  <path d="m440.97 292.9c-2.3789 12.492 4.1914 17.859 15.25 20.633 10.109 2.5391 17.273-0.44531 24.551-8.1328-5.3047 8.2266-0.50391 19.336 4.2148 26.961 4.3281 7 19.855 16.754 28.68 11.68 10.898-6.2695 4.6562-39.312-6.2695-41.965 9.0156-2.6484 20.645-0.3125 28.406-7.2539 8.6758-7.7656 5.957-18.438-1.5195-25.754-8.2148-8.0352-21.98-7.5-29.891 0.058594 6.7734-16.359-1.8672-47.324-24.754-36.285-8.3242 4.0156-11.281 13.266-11.168 21.762 0.15234 11.262 4.9336 13.086 10.598 21.312-13.133-8.2773-35.16 1.5508-38.098 16.984zm61.875-22.137c-0.22266 0.26953-0.50781 0.47656-0.71484 0.76172-1.1797-0.29297-0.49219-0.59375 0.71484-0.76172zm-6.8164 12.918-0.76562 0.76562c7.6328 2.3906-0.79688 18.465-8.4727 10.133-5.207-5.6367 5.3516-19.133 9.2383-10.898z"/>
  <path d="m273.85 401.62c20.039 6.0586 31.598-7.0312 41.336-22.277 7.7188-12.09 8.2695-23.723 11.398-36.953 9.8086 5.8594 16.906 12.914 28.973 14.324 19.512 2.2773 33.48-9.9102 36.938-29.062 2.5469-14.102-2.0234-32.773-15.879-39.766-8.6719-4.375-19.559-2.7695-28.707 0.019531 13.957-14.488 20.812-40.273 4.5117-51.309-26.312-17.809-55.309 11.078-57.09 36.285-5.4609-5.4805-7.9336-13.355-14.867-18.738-9.3906-7.2891-28.336-11.711-39.539-7.2461-29.258 11.66-36.859 47.207-12.199 68.035 11.867 10.027 30.098 10.629 44.508 9.4531-8.7773 10.699-16.797 18.68-19.082 32.777-2.75 16.93 0.63281 38.691 19.699 44.457zm25.637-101.97c8.2578-6.1758 23.172-0.97266 17.832 13.5-3.0352 8.2266-16.578 13.965-23.207 5.7969-4.1914-5.168-1.4688-18.824 5.375-19.297z"/>
  <path d="m198.07 374.61c4.9258-7.7578 10.645-13.898 17.031-20.332 8.3203-8.3828 24.266-16.711 35.879-16.375-0.47656-2.3711-2.1133-2.6602-2.9648-4.4609-35.672-17.84-68.559 2.2148-80.777 38.598-5.4844 16.324-6.9297 35.324-16.93 50.289 20.02-0.90625 43.508-0.75 59.434-14.828 11.48-10.148 19.719-24.594 25.941-38.535 2.9805-6.6758 8.0742-13.121 10.703-19.32-25.617-4.2969-44.645 33.18-63.227 47.395 6.6055-5.5703 10.418-15.363 14.91-22.43zm-17.957 24.559c1.0508-0.59375 2.0312-1.293 2.9609-2.0703-0.98438 0.75391-1.9688 1.4609-2.9609 2.0703z"/>
  <path d="m262.39 217.89c2.3125 11.828 12.672 32.074 26.195 30.578-8.8242-5.7266-10.152-23.789-9.2266-34.484 1.1992-13.84 7.5156-30.078-2.7383-42.727 11.285 8.7461 9.8516 21.695 10.43 34.734 0.51953 11.75 5.3047 21.324 5.3594 33.41 1.3398-5.5039 8.0898-13.977 10.906-20.762 6.6211-15.941 7.8516-37.711-3.6562-52.004-6.5781-8.168-16.266-12.645-26.426-14.422-7.6641-1.3398-25.938-5.3789-32.031-0.39453 19.566 14.969 17.02 44.711 21.188 66.07z"/>
  <path d="m457.86 267.61c-1.0273 0-2.1172 0.015625-3.2188 0.023437 1.0312 0.078126 2.0938 0.10156 3.2188-0.023437z"/>
  <path d="m426.18 263.59c8.3477 4.3477 19.527 4.1406 28.461 4.0391-12.129-0.96484-18.426-15.098-31.105-14.57 8.1992-2.1914 14.184 0 20.824 4.5938 6.5703 4.5469 11.773 6.4883 17.988 6.125 1.3125-11.891-11.883-23.188-22.195-25.426-13.387-2.9141-24.762 0.3125-37.562-5.6875-1.0195 11.113 14.844 26.375 23.59 30.926z"/>
  <path d="m511.38 255.42c0.042969 1.1758 0.050782 3.082 0.12891 3.707 3.6484-4.3711 6.3047-10.207 10.922-14.488 4.625-4.2852 13.051-6.2305 15.566-12.148-2.1797 7.4883-13.109 19.148-18.738 25.195 9.5078-1.3516 18.859-3.75 25.012-12.641 6.1328-8.8594 4.9297-28.543-2.9492-35.562 0.82031 19.441-40.008 24.695-30.582 45.746 0.30469 0.12891 0.5 0.17188 0.64062 0.19141zm-0.046875-0.82422c0.003907 0.027344 0.003907 0.11328 0.007813 0.15234-0.035156-0.074219-0.054688-0.13672-0.007813-0.15234z"/>
  <path d="m479.88 501.46c-2.8164-4.5039-8.3242-7.6562-10.949-12.027 14.074-0.78516 28.328 2.7461 42.801 2.4727 17.168-0.32031 24.879-12.219 33.113-25.496 5.5547-8.9609 7.9375-13.934 7.8203-24.602-0.15625-14.055-6.1797-17.223-16.219-25.914-13.605-11.777-31.926-17.324-49.441-12.219-5.9453 1.7344-13.738 4.4531-18.18 8.4883 8.9492-23.145 14.742-58.914-12.941-69.797-13.586-5.3438-36.855-8.0586-48.59 1.9414-11.492 9.793-19.82 28.293-19.641 43.215 0.24219 19.66 15.004 27.336 21.469 43.781-7.3516-6.332-17.953-4.3398-27.488-4.2305-15.758 0.17578-27.398 4.375-38.977 15.52-7.8281 7.5312-18.562 23.77-16.309 35.621 2.9023 15.262 23.566 29.035 37.949 30.066 15.066 1.0742 35.344-1.9805 46.578-12.66-17.934 17.492-4.7305 66.508 13.117 78.828 30.309 20.91 68.797-5.4258 65.207-41.031-0.95312-9.4062-4.25-23.863-9.3203-31.957zm-43.977-25.586c-9.918-0.67188-19.066-14.605-13.938-23.668 4.9961-8.8281 13.188-6.2148 20.473-3.9453l-0.25391 0.12891c3.1953-0.29688 8.2539 6.6641 8.6758 10.207 0.99609 8.3477-5.7383 17.898-14.957 17.277z"/>
  <path d="m332.75 571.83c7.3633-6.0508 12.289-16.125 18.434-23.355 9.4141-11.086 23.902-19.883 36.812-25.375-1.5781-2.7344-2.6055-2.4922-2.1992-5.1875-11.512-2.2227-28.887-2.5195-39.422 2.2969-17.363 7.9375-24.949 28.121-42.297 36.016-14.309 6.5078-29.148 7.1055-44.484 7.7305 3.4141 10.539 17.703 18.805 27.52 23.238 14.672 6.625 28.727 7.2539 44.684 7.2656 22.68 0.007812 38.871-11.891 49.422-31.77 4.8008-9.0469 6.0195-19.047 11.387-27.781-12.559-0.09375-24.957 9.1484-34.387 17.453-9.0977 8.0039-16.266 14.934-25.469 19.469z"/>
  <path d="m586.74 539.66c-11.309-14.984-24.211-27.59-41.559-35.383-7.5078-3.3711-19.195-5.9727-27.609-4.625-1.7852 37.902 43.535 30.391 56.449 57.961-7.7617-4.2188-12.891-9.9766-22.16-12.355-8.8789-2.2773-17.926-2.2539-26.156-6.5117-6.3945-3.3047-9.8945-7.8789-13.801-13.91-3.8047-5.8633-4.6445-14.742-8.8242-19.082-1.0703 3.1367-3.6211 5.1445-3.9961 3.8867-0.007812 19.867-0.38281 37.176 19.164 48.07 19.176 10.68 41.188 10.809 60.273 22.18 9.6523 5.75 16.52 14.008 23.172 22.715-0.35938-22.262-1.0664-44.551-14.953-62.945z"/>
  <path d="m499.09 509.65v-0.92188c-0.085938 0.41797-0.0625 0.70312 0 0.92188z"/>
 </g>
</svg>
