<?xml version="1.0" encoding="UTF-8"?>
<svg width="752pt" height="752pt" version="1.1" viewBox="0 0 752 752" xmlns="http://www.w3.org/2000/svg">
 <defs>
  <clipPath id="a">
   <path d="m139.21 265h473.58v222h-473.58z"/>
  </clipPath>
 </defs>
 <g clip-path="url(#a)">
  <path d="m171.87 269.86h2.043c2.043 4.082 10.207 12.246 12.246 12.246-2.043-2.043-10.207-12.246-10.207-14.289 2.043-2.043 12.246-4.082 16.332 0 0 2.043 10.207 14.289 12.246 14.289-2.043-4.082-10.207-12.246-10.207-16.332 2.043 0 16.332 4.082 18.371 4.082 2.043 2.043 4.082 2.043 6.125 2.043 4.082 6.125 22.453 42.867 22.453 42.867 0-6.125-20.414-40.824-18.371-40.824 0 0 12.246 2.043 16.332 6.125 0 4.082 4.082 12.246 6.125 14.289 0-4.082-6.125-12.246-6.125-14.289 4.082 0 12.246 4.082 12.246 6.125 2.043 10.207 6.125 20.414 8.1641 30.621 0-2.043-6.125-28.578-6.125-30.621 6.125 0 16.332 18.371 16.332 18.371-2.043-4.082-10.207-20.414-10.207-22.453 2.043 0 6.125 0 6.125 2.043 4.082 10.207 10.207 26.535 14.289 32.66 0-6.125-12.246-30.621-10.207-32.66l2.043 2.043c8.1641 16.332 12.246 32.66 16.332 48.992 2.043-8.1641-12.246-44.91-12.246-46.949 10.207 2.043 16.332 30.621 20.414 40.824 0-4.082-10.207-30.621-10.207-32.66 2.043 0 14.289 18.371 16.332 22.453 4.082 4.082 6.125 18.371 8.1641 26.535 2.043-2.043-2.043-14.289-2.043-18.371 4.082 4.082 6.125 18.371 8.1641 20.414 2.043-12.246-2.043-30.621-6.125-42.867-2.043-4.082-12.246-28.578-12.246-28.578s6.125 2.043 8.1641 4.082c2.043 2.043 6.125 16.332 8.1641 20.414-2.043-2.043-6.125-16.332-4.082-18.371 4.082 2.043 6.125 14.289 8.1641 18.371 0-4.082-4.082-12.246-4.082-14.289 2.043 0 4.082 2.043 6.125 2.043 2.043 2.043 2.043 2.043 2.043 4.082 2.043 8.1641 12.246 53.074 10.207 61.238 4.082-2.043-6.125-73.488-2.043-73.488h4.082c0 8.1641 4.082 24.496 4.082 30.621 0 0-2.043-20.414-2.043-24.496 2.043 2.043 4.082 4.082 4.082 6.125 2.043 4.082 2.043 6.125 2.043 10.207v-4.082c4.082 4.082 18.371 71.445 26.535 83.691 0-2.043-2.043-2.043-2.043-4.082-4.082-18.371-20.414-69.402-14.289-85.734 4.082 6.125 12.246 75.527 22.453 87.777 6.125-14.289-12.246-67.363-10.207-79.609 8.1641 4.082 10.207 20.414 12.246 26.535l-2.043-8.1641c10.207 10.207 20.414 61.238 26.535 69.402 2.043-8.1641-8.1641-63.281-6.125-75.527l4.082 4.082c0 4.082 2.043 18.371 2.043 20.414 2.043-2.043-2.043-12.246 0-16.332 0 2.043 2.043 2.043 2.043 4.082 0 2.043 2.043 18.371 2.043 22.453 2.043-2.043 0-14.289 0-16.332 8.1641 6.125 10.207 48.992 14.289 57.156 2.043-2.043 2.043-4.082 2.043-6.125 4.082-32.66 10.207-26.535 20.414-51.031 2.043-2.043 6.125-8.1641 8.1641-8.1641 2.043 4.082-14.289 28.578-16.332 38.785 2.043-2.043 10.207-24.496 12.246-26.535 2.043 0-8.1641 46.949 0 57.156 10.207-24.496 24.496-14.289 34.703-61.238 2.043 26.535-22.453 55.113-22.453 57.156 4.082 0 10.207-6.125 10.207-8.1641 6.125-6.125 12.246-14.289 18.371-22.453l8.1641-12.246c-6.125 18.371-16.332 28.578-24.496 42.867 2.043-2.043 14.289-12.246 16.332-12.246-2.043 4.082-14.289 22.453-18.371 26.535s-4.082 2.043-10.207 2.043c6.125 6.125 138.81 2.043 153.1 8.1641-10.207 6.125-124.52 2.043-149.02-2.043 8.1641 8.1641 2.043 10.207 6.125 20.414 2.043 6.125 6.125 14.289 8.1641 16.332-4.082-2.043-6.125-6.125-8.1641-8.1641 2.043 2.043 12.246 16.332 12.246 16.332-18.371-8.1641-26.535-38.785-28.578-38.785-2.043 2.043-2.043 16.332-2.043 16.332-2.043 0-2.043-4.082-2.043-6.125-4.082 4.082 6.125 34.703 6.125 40.824-10.207-4.082-12.246-30.621-14.289-40.824v-6.125c-2.043 4.082-8.1641 30.621-10.207 30.621v-4.082s-2.043 6.125-2.043 8.1641c-2.043 4.082-14.289 26.535-16.332 28.578 0-6.125 8.1641-22.453 8.1641-28.578v2.043c0-6.125 10.207-36.742 4.082-40.824-2.043 4.082-20.414 59.199-26.535 59.199 0-4.082 4.082-12.246 6.125-18.371 2.043-4.082 6.125-12.246 6.125-16.332-2.043 2.043-4.082 12.246-6.125 14.289 2.043-8.1641 8.1641-28.578 8.1641-36.742-4.082 4.082-28.578 57.156-32.66 57.156 2.043-10.207 24.496-51.031 16.332-57.156-14.289 4.082-22.453 53.074-24.496 67.363-4.082-6.125 2.043-44.91 6.125-53.074 0 0-12.246 26.535-28.578 36.742 2.043-4.082 10.207-12.246 12.246-16.332-2.043 2.043-8.1641 10.207-10.207 10.207 0-4.082 12.246-16.332 12.246-20.414-4.082 2.043-10.207 12.246-14.289 12.246 4.082-6.125 14.289-14.289 16.332-20.414 0 2.043-20.414 24.496-24.496 24.496 4.082-6.125 18.371-20.414 20.414-24.496-6.125 4.082-26.535 18.371-34.703 18.371 0-2.043 4.082-2.043 4.082-4.082 10.207-8.1641 28.578-22.453 32.66-34.703-6.125 10.207-34.703 28.578-44.91 28.578 2.043-4.082 12.246-12.246 12.246-14.289 0 0-10.207 8.1641-12.246 10.207-6.125 6.125-4.082 4.082-10.207 0h-4.082c2.043-4.082 4.082-4.082 4.082-8.1641l-2.043 4.082c-4.082 4.082-16.332 8.1641-20.414 6.125 0-4.082 6.125-12.246 8.1641-16.332 0 0-10.207 14.289-10.207 16.332-2.043 0-4.082 0-6.125-2.043-6.125 0 2.043-10.207 2.043-14.289 0 2.043-6.125 12.246-8.1641 12.246 0 2.043-16.332-4.082-18.371-4.082 2.043-2.043 6.125-10.207 8.1641-12.246-2.043 0-8.1641 10.207-8.1641 12.246-2.043 0-14.289-4.082-16.332-6.125 0 0 16.332-12.246 16.332-16.332-4.082 4.082-16.332 14.289-20.414 14.289-2.043 2.043-8.1641-2.043-8.1641-4.082 2.043 0 12.246-8.1641 16.332-12.246-4.082 2.043-16.332 12.246-18.371 10.207-2.043 0-2.043-4.082-4.082-4.082 0 0-12.246 2.043-16.332-6.125 8.1641 0 10.207-4.082 12.246-8.1641-6.125 0-6.125 10.207-18.371 4.082-2.043 0-4.082-2.043-8.1641-4.082 2.043 0 16.332-10.207 18.371-12.246-2.043 0-18.371 12.246-20.414 12.246l-18.371-4.082c0-2.043 4.082-2.043 4.082-2.043 2.043-2.043 12.246-8.1641 14.289-10.207-4.082-2.043-24.496-8.1641-26.535-12.246 8.1641 0 40.824 10.207 59.199-14.289-26.535 22.453-89.816 10.207-77.57-30.621 0 0 6.125 12.246 10.207 12.246-4.082-2.043-8.1641-14.289-10.207-18.371-2.043-4.082 2.043-20.414 4.082-24.496 2.043 0 10.207 12.246 12.246 14.289 0-2.043-10.207-16.332-10.207-16.332 0-4.082 6.125-10.207 8.1641-12.246 2.043 0 10.207 8.1641 12.246 10.207-2.043-4.082-8.1641-8.1641-10.207-12.246 2.043-4.082 10.207-8.1641 14.289-10.207z" fill-rule="evenodd"/>
 </g>
</svg>
